# xmcd
#
# Track frame offsets: 
#        150
#        19177
#        40461
#        61202
#        78942
#        100287
#        127735
#        147150
#        164514
#        182601
#        199275
#        218829
#
# Disc length: 3151 seconds
#
# Revision: 0
# Processed by: cddbd v1.5.2PL0 Copyright (c) Steve Scherf et al.
# Submitted via: ExactAudioCopy v0.95b4
#
DISCID=a40c4d0c
DTITLE=Hanne Boel - Private Eye
DYEAR=1900
DGENRE=Blues
TTITLE0=Diamond Thief
TTITLE1=I'm Not The Enemy
TTITLE2=November Song
TTITLE3=Preacher
TTITLE4=There's An Angel
TTITLE5=The Ballad Of Lucy Jordan
TTITLE6=I'll Be Your BabyTonight
TTITLE7=Mother's Eyes
TTITLE8=Next To You
TTITLE9=Hush Now
TTITLE10=Year Of The Cat
TTITLE11=Let The Music Play
EXTD=
EXTT0=
EXTT1=
EXTT2=
EXTT3=
EXTT4=
EXTT5=
EXTT6=
EXTT7=
EXTT8=
EXTT9=
EXTT10=
EXTT11=
PLAYORDER=
